<svg width="25" height="25" viewBox="0 0 25 25" fill="none" xmlns="http://www.w3.org/2000/svg">
<path d="M12.5 25C19.4043 25 25 19.4043 25 12.5C25 5.5957 19.4043 0 12.5 0C5.5957 0 0 5.5957 0 12.5C0 19.4043 5.5957 25 12.5 25ZM8.54492 8.54492C9.00391 8.08594 9.74609 8.08594 10.2002 8.54492L12.4951 10.8398L14.79 8.54492C15.249 8.08594 15.9912 8.08594 16.4453 8.54492C16.8994 9.00391 16.9043 9.74609 16.4453 10.2002L14.1504 12.4951L16.4453 14.79C16.9043 15.249 16.9043 15.9912 16.4453 16.4453C15.9863 16.8994 15.2441 16.9043 14.79 16.4453L12.4951 14.1504L10.2002 16.4453C9.74121 16.9043 8.99902 16.9043 8.54492 16.4453C8.09082 15.9863 8.08594 15.2441 8.54492 14.79L10.8398 12.4951L8.54492 10.2002C8.08594 9.74121 8.08594 8.99902 8.54492 8.54492Z" fill="#474747"/>
</svg>
